<svg width="18" height="18" viewBox="0 0 18 18" fill="none" xmlns="http://www.w3.org/2000/svg">
<path d="M17.9905 9.1683C17.9905 8.43085 17.9292 7.89271 17.7967 7.33464H9.17926V10.6631H14.2375C14.1356 11.4903 13.5849 12.736 12.3611 13.5731L12.3439 13.6845L15.0686 15.7472L15.2574 15.7656C16.991 14.201 17.9905 11.8989 17.9905 9.1683" fill="#4285F4"/>
<path d="M9.17923 17.9383C11.6573 17.9383 13.7377 17.141 15.2573 15.7658L12.361 13.5732C11.586 14.1014 10.5457 14.4702 9.17923 14.4702C6.75209 14.4702 4.69209 12.9056 3.95775 10.743L3.85012 10.7519L1.01697 12.8946L0.979919 12.9952C2.48923 15.9252 5.58946 17.9383 9.17923 17.9383Z" fill="#34A853"/>
<path d="M3.95777 10.743C3.764 10.1849 3.65187 9.58693 3.65187 8.96909C3.65187 8.35118 3.764 7.75327 3.94757 7.1952L3.94244 7.07635L1.07377 4.89931L0.979916 4.94293C0.357855 6.15876 0.000915527 7.52408 0.000915527 8.96909C0.000915527 10.4141 0.357855 11.7794 0.979916 12.9952L3.95777 10.743Z" fill="#FBBC05"/>
<path d="M9.17931 3.46805C10.9028 3.46805 12.0654 4.19554 12.7283 4.80349L15.3186 2.33199C13.7277 0.886977 11.6574 3.05176e-05 9.17931 3.05176e-05C5.58951 3.05176e-05 2.48924 2.01308 0.979919 4.94295L3.94759 7.19522C4.69212 5.03268 6.75215 3.46805 9.17931 3.46805" fill="#EB4335"/>
</svg>
