<svg width="14" height="10" viewBox="0 0 14 10" fill="none" xmlns="http://www.w3.org/2000/svg">
<path fill-rule="evenodd" clip-rule="evenodd" d="M6.99995 3.92927C6.42105 3.92927 5.94995 4.40993 5.94995 5.00057C5.94995 5.59122 6.42105 6.07188 6.99995 6.07188C7.57885 6.07188 8.04995 5.59122 8.04995 5.00057C8.04995 4.40993 7.57885 3.92927 6.99995 3.92927ZM6.99993 7.50028C5.64893 7.50028 4.54993 6.37898 4.54993 5.00056C4.54993 3.62215 5.64893 2.50085 6.99993 2.50085C8.35093 2.50085 9.44993 3.62215 9.44993 5.00056C9.44993 6.37898 8.35093 7.50028 6.99993 7.50028ZM13.9076 4.6449C13.4603 3.8507 10.9942 -0.130273 6.8103 0.0032833C2.9414 0.103986 0.6902 3.58216 0.0924 4.6449C-0.0308 4.86559 -0.0308 5.13555 0.0924 5.35624C0.5334 6.13973 2.9134 10 7.0175 10C7.0742 10 7.1316 9.99929 7.1897 9.99786C11.0586 9.89715 13.3098 6.41898 13.9076 5.35624C14.0308 5.13555 14.0308 4.86559 13.9076 4.6449Z" fill="#781596"/>
</svg>
