<svg width="53" height="9" viewBox="0 0 53 9" fill="none" xmlns="http://www.w3.org/2000/svg">
<circle cx="50.5" cy="4.5" r="2.5" fill="#F6F6F6"/>
<circle cx="35.5" cy="4.5" r="2.5" fill="#F6F6F6"/>
<path fill-rule="evenodd" clip-rule="evenodd" d="M18.5 9C20.9853 9 23 6.98528 23 4.5C23 2.01472 20.9853 0 18.5 0C16.0147 0 14 2.01472 14 4.5C14 6.98528 16.0147 9 18.5 9ZM18.5 8C16.567 8 15 6.433 15 4.5C15 2.567 16.567 1 18.5 1C20.433 1 22 2.567 22 4.5C22 6.433 20.433 8 18.5 8ZM18.5 6.5C19.6046 6.5 20.5 5.60457 20.5 4.5C20.5 3.39543 19.6046 2.5 18.5 2.5C17.3954 2.5 16.5 3.39543 16.5 4.5C16.5 5.60457 17.3954 6.5 18.5 6.5Z" fill="#F6F6F6"/>
<circle cx="2.5" cy="4.5" r="2.5" fill="#F6F6F6"/>
</svg>
