<svg width="38" height="26" viewBox="0 0 38 26" fill="none" xmlns="http://www.w3.org/2000/svg">
<path d="M37.995 13.1393C37.9864 13.1861 37.9734 13.2329 37.9605 13.2755C37.8439 13.7819 37.3819 14.1393 36.8552 14.1266L4.21399 14.1266L14.369 24.1359C14.5892 24.3401 14.7101 24.621 14.7144 24.9189C14.7101 25.3615 14.4381 25.7573 14.0193 25.9232C13.6048 26.085 13.1255 25.9871 12.8147 25.6679L0.759898 13.8202L-1.73882e-06 13.0371L0.759898 12.2541L12.8147 0.406366C13.0824 0.0829364 13.5098 -0.0660119 13.9243 0.0276129C14.3345 0.121237 14.6583 0.440411 14.7533 0.844698C14.8483 1.25324 14.6972 1.67455 14.369 1.9384L4.21399 11.9477L36.8552 11.9477C37.1747 11.9349 37.4812 12.0626 37.6971 12.2881C37.9173 12.5179 38.0252 12.8286 37.995 13.1393Z" fill="white"/>
</svg>
